# xmcd
#
# Track frame offsets:
#	150
#	20177
#	39025
#	60520
#	81477
#	96617
#	111110
#	124600
#	141925
#	157600
#	177892
#	191475
#	208120
#	229820
#	244302
#	273017
#
# Disc length: 3652 seconds
#
# Revision: 1
# Processed by: cddbd v1.5.1PL0 Copyright (c) Steve Scherf et al.
# Submitted via: audiograbber 1.82.02
#
DISCID=d90e4210
DTITLE=Various- Country Hits - Vol. 3 - SC8103
DYEAR=1994
DGENRE=Karaoke
TTITLE0=Tritt, Travis - Lord Have Mercy On The Working Man
TTITLE1=Montgomery, John Michael - I Love The Way You Love Me
TTITLE2=Rogers, Kenny - Through The Years
TTITLE3=Brooks and Dunn - Neon Moon
TTITLE4=McEntire, Reba - Take It Back
TTITLE5=Raye, Collin - That's My Story
TTITLE6=Lawrence, Tracy - My Second Home
TTITLE7=Shenandoah - I Want To Be Loved Like That
TTITLE8=Carpenter, Mary Chapin - Down At The Twist And Shout
TTITLE9=Milsap, Ronnie - Lost In The Fifties Tonight
TTITLE10=Cline, Patsy - I Fall To Pieces
TTITLE11=Strait, George - I Cross My Heart
TTITLE12=Morgan, Lorrie - Something In Red
TTITLE13=Parton, Dolly - I Will Always Love You
TTITLE14=Charlie Daniels Band, The - Devil Went Down To Georgia, The
TTITLE15=Data Track [CD Extra) - Data Track
EXTD=
EXTT0=
EXTT1=
EXTT2=
EXTT3=
EXTT4=
EXTT5=
EXTT6=
EXTT7=
EXTT8=
EXTT9=
EXTT10=
EXTT11=
EXTT12=
EXTT13=
EXTT14=
EXTT15=
PLAYORDER=
